<svg width="14" height="14" viewBox="0 0 14 14" fill="none" xmlns="http://www.w3.org/2000/svg">
<path d="M6.30286 11.333C6.14886 11.333 6.02086 11.281 5.91686 11.177C5.81286 11.073 5.76086 10.944 5.76086 10.791V7.54102L2.61886 3.53302C2.48386 3.35202 2.46386 3.16302 2.55886 2.96402C2.65286 2.76502 2.81786 2.66602 3.05286 2.66602H10.6359C10.8709 2.66602 11.0359 2.76502 11.1299 2.96402C11.2249 3.16302 11.2049 3.35202 11.0689 3.53302L7.92786 7.54102V10.791C7.92786 10.944 7.87586 11.073 7.77186 11.177C7.66786 11.281 7.53986 11.333 7.38586 11.333H6.30286Z" fill="#949494"/>
</svg>
