<svg width="14" height="14" viewBox="0 0 14 14" fill="none" xmlns="http://www.w3.org/2000/svg">
<mask id="mask0_3078_1620" style="mask-type:alpha" maskUnits="userSpaceOnUse" x="0" y="0" width="14" height="14">
<rect width="14" height="14" fill="#D9D9D9"/>
</mask>
<g mask="url(#mask0_3078_1620)">
<path d="M2.33268 11.6663C2.01185 11.6663 1.7372 11.5521 1.50872 11.3236C1.28025 11.0952 1.16602 10.8205 1.16602 10.4997V3.49967C1.16602 3.17884 1.28025 2.90419 1.50872 2.67572C1.7372 2.44724 2.01185 2.33301 2.33268 2.33301H5.35143C5.50699 2.33301 5.65525 2.36217 5.79622 2.42051C5.9372 2.47884 6.06115 2.56148 6.1681 2.66842L6.99935 3.49967H11.666C11.9868 3.49967 12.2615 3.61391 12.49 3.84238C12.7184 4.07085 12.8327 4.34551 12.8327 4.66634V10.4997C12.8327 10.8205 12.7184 11.0952 12.49 11.3236C12.2615 11.5521 11.9868 11.6663 11.666 11.6663H2.33268Z" fill="#949494"/>
</g>
</svg>
