<svg width="30" height="30" viewBox="0 0 30 30" fill="none" xmlns="http://www.w3.org/2000/svg">
<path d="M15.0028 30C12.928 30 10.9779 29.6063 9.15237 28.8189C7.32684 28.0316 5.73895 26.963 4.38868 25.6133C3.03842 24.2636 1.96934 22.6763 1.18145 20.8516C0.393816 19.0268 0 17.0772 0 15.0028C0 12.928 0.393684 10.9779 1.18105 9.15237C1.96842 7.32684 3.03697 5.73895 4.38671 4.38868C5.73645 3.03842 7.32368 1.96934 9.14842 1.18145C10.9732 0.393816 12.9228 0 14.9972 0C17.072 0 19.0221 0.393684 20.8476 1.18105C22.6732 1.96842 24.2611 3.03697 25.6113 4.38671C26.9616 5.73645 28.0307 7.32368 28.8186 9.14842C29.6062 10.9732 30 12.9228 30 14.9972C30 17.072 29.6063 19.0221 28.8189 20.8476C28.0316 22.6732 26.963 24.2611 25.6133 25.6113C24.2636 26.9616 22.6763 28.0307 20.8516 28.8186C19.0268 29.6062 17.0772 30 15.0028 30ZM16.2722 16.1842L14.1679 18.2886C13.9495 18.5072 13.8428 18.7795 13.8478 19.1053C13.8528 19.4311 13.9646 19.7033 14.1833 19.922C14.402 20.1407 14.6776 20.25 15.0103 20.25C15.3429 20.25 15.6168 20.1407 15.8321 19.922L19.755 15.9991C20.0405 15.7136 20.1833 15.3805 20.1833 15C20.1833 14.6195 20.0405 14.2864 19.755 14.0009L15.8167 10.0626C15.598 9.84421 15.3258 9.735 15 9.735C14.6742 9.735 14.402 9.84421 14.1833 10.0626C13.9646 10.2813 13.8553 10.557 13.8553 10.8896C13.8553 11.2222 13.9646 11.4962 14.1833 11.7114L16.2722 13.8158H10.2632C9.92763 13.8158 9.64645 13.9293 9.41961 14.1564C9.1925 14.3836 9.07895 14.6649 9.07895 15.0004C9.07895 15.3362 9.1925 15.6174 9.41961 15.8439C9.64645 16.0708 9.92763 16.1842 10.2632 16.1842H16.2722Z" fill="#949494"/>
</svg>
