<svg width="14" height="14" viewBox="0 0 14 14" fill="none" xmlns="http://www.w3.org/2000/svg">
<mask id="mask0_3078_1615" style="mask-type:alpha" maskUnits="userSpaceOnUse" x="0" y="0" width="14" height="14">
<rect width="14" height="14" fill="#D9D9D9"/>
</mask>
<g mask="url(#mask0_3078_1615)">
<path d="M8.77915 11.5C8.99753 11.5 9.19688 11.4491 9.37718 11.3473C9.55749 11.2455 9.70141 11.1093 9.80894 10.9386C9.91647 10.768 9.97024 10.5793 9.97024 10.3726C9.97024 10.1659 9.91647 9.97719 9.80894 9.80652C9.70141 9.63585 9.55749 9.49962 9.37718 9.39784C9.19688 9.29605 8.99753 9.24516 8.77915 9.24516C8.56079 9.24516 8.36146 9.29605 8.18116 9.39784C8.00085 9.49962 7.8561 9.63585 7.74691 9.80652C7.63772 9.97719 7.58312 10.1659 7.58312 10.3726C7.58312 10.5793 7.63772 10.768 7.74691 10.9386C7.8561 11.1093 8.00085 11.2455 8.18116 11.3473C8.36146 11.4491 8.56079 11.5 8.77915 11.5ZM8.77915 10.9222C8.61703 10.9222 8.47974 10.8689 8.36726 10.7625C8.25478 10.656 8.19854 10.526 8.19854 10.3726C8.19854 10.216 8.25478 10.0852 8.36726 9.98032C8.47974 9.87542 8.61703 9.82297 8.77915 9.82297C8.94129 9.82297 9.0786 9.87542 9.19108 9.98032C9.30356 10.0852 9.3598 10.216 9.3598 10.3726C9.3598 10.526 9.30356 10.656 9.19108 10.7625C9.0786 10.8689 8.94129 10.9222 8.77915 10.9222ZM7.99008 9.99206H2.39702C2.28784 9.99206 2.19438 10.0289 2.11663 10.1025C2.03888 10.1761 2 10.2661 2 10.3726C2 10.4759 2.03888 10.5644 2.11663 10.638C2.19438 10.7116 2.28784 10.7484 2.39702 10.7484H7.99008V9.99206ZM11.6179 9.99206H9.64271V10.7484H11.6179C11.7204 10.7484 11.8098 10.7116 11.8859 10.638C11.962 10.5644 12 10.4759 12 10.3726C12 10.2661 11.962 10.1761 11.8859 10.1025C11.8098 10.0289 11.7204 9.99206 11.6179 9.99206ZM5.27544 8.63449C5.4938 8.63449 5.69314 8.58281 5.87346 8.47945C6.05377 8.37609 6.19769 8.23908 6.30522 8.06841C6.41274 7.89773 6.46651 7.70904 6.46651 7.50234C6.46651 7.29565 6.41274 7.10697 6.30522 6.93629C6.19769 6.76561 6.05377 6.62938 5.87346 6.5276C5.69314 6.42581 5.4938 6.37492 5.27544 6.37492C5.05708 6.37492 4.85774 6.42581 4.67742 6.5276C4.49711 6.62938 4.35319 6.76561 4.24566 6.93629C4.13813 7.10697 4.08437 7.29565 4.08437 7.50234C4.08437 7.70904 4.13813 7.89773 4.24566 8.06841C4.35319 8.23908 4.49711 8.37609 4.67742 8.47945C4.85774 8.58281 5.05708 8.63449 5.27544 8.63449ZM5.27544 8.05196C5.11332 8.05196 4.97602 7.99872 4.86353 7.89225C4.75104 7.78577 4.69479 7.6558 4.69479 7.50234C4.69479 7.34576 4.75104 7.21501 4.86353 7.1101C4.97602 7.00519 5.11332 6.95273 5.27544 6.95273C5.44086 6.95273 5.579 7.00519 5.68983 7.1101C5.80067 7.21501 5.85609 7.34576 5.85609 7.50234C5.85609 7.6558 5.80067 7.78577 5.68983 7.89225C5.579 7.99872 5.44086 8.05196 5.27544 8.05196ZM2.37717 7.12184C2.27792 7.12184 2.19024 7.15864 2.11414 7.23223C2.03805 7.30583 2 7.39587 2 7.50234C2 7.60883 2.03805 7.69808 2.11414 7.77011C2.19024 7.84214 2.27792 7.87815 2.37717 7.87815H4.42184V7.12184H2.37717ZM11.598 7.12184H6.06452V7.87815H11.598C11.7105 7.87815 11.8057 7.84214 11.8834 7.77011C11.9611 7.69808 12 7.60883 12 7.50234C12 7.39587 11.9611 7.30583 11.8834 7.23223C11.8057 7.15864 11.7105 7.12184 11.598 7.12184ZM8.77915 5.75954C8.99753 5.75954 9.19688 5.70865 9.37718 5.60687C9.55749 5.50509 9.70141 5.36886 9.80894 5.19818C9.91647 5.0275 9.97024 4.83881 9.97024 4.63212C9.97024 4.42543 9.91647 4.23674 9.80894 4.06606C9.70141 3.89538 9.55749 3.75837 9.37718 3.65502C9.19688 3.55167 8.99753 3.5 8.77915 3.5C8.56079 3.5 8.36146 3.55167 8.18116 3.65502C8.00085 3.75837 7.8561 3.89538 7.74691 4.06606C7.63772 4.23674 7.58312 4.42543 7.58312 4.63212C7.58312 4.83881 7.63772 5.0275 7.74691 5.19818C7.8561 5.36886 8.00085 5.50509 8.18116 5.60687C8.36146 5.70865 8.56079 5.75954 8.77915 5.75954ZM8.77915 5.18173C8.61703 5.18173 8.47974 5.12771 8.36726 5.01967C8.25478 4.91163 8.19854 4.78088 8.19854 4.62742C8.19854 4.47397 8.25478 4.344 8.36726 4.23752C8.47974 4.13104 8.61703 4.0778 8.77915 4.0778C8.94129 4.0778 9.0786 4.13104 9.19108 4.23752C9.30356 4.344 9.3598 4.47397 9.3598 4.62742C9.3598 4.78088 9.30356 4.91163 9.19108 5.01967C9.0786 5.12771 8.94129 5.18173 8.77915 5.18173ZM8.01488 4.25631H2.39702C2.28784 4.25631 2.19438 4.29311 2.11663 4.36671C2.03888 4.4403 2 4.52877 2 4.63212C2 4.7386 2.03888 4.82864 2.11663 4.90223C2.19438 4.97583 2.28784 5.01262 2.39702 5.01262H8.01488V4.25631ZM11.6179 4.25631H9.57319V5.01262H11.6179C11.7204 5.01262 11.8098 4.97583 11.8859 4.90223C11.962 4.82864 12 4.7386 12 4.63212C12 4.52877 11.962 4.4403 11.8859 4.36671C11.8098 4.29311 11.7204 4.25631 11.6179 4.25631Z" fill="#949494"/>
</g>
</svg>
