<svg width="23" height="27" viewBox="0 0 23 27" fill="none" xmlns="http://www.w3.org/2000/svg">
<path d="M11.4863 0C17.8258 0.000106143 22.9727 5.04 22.9727 11.248L23 11.2617C23 13.3944 22.3753 15.3782 21.335 17.0762C18.7685 21.4638 13.1787 26.3408 13.1787 26.3408C12.7071 26.7754 12.1103 26.9922 11.5 26.9922C10.8897 26.9786 10.2791 26.7754 9.82129 26.3408C9.82129 26.3408 4.21761 21.4501 1.66504 17.0488C0.610771 15.3508 1.62975e-05 13.3672 0 11.248C0 5.03993 5.13289 0 11.4863 0ZM11.4863 6.31641C8.6317 6.31641 6.31738 8.63073 6.31738 11.4854C6.31748 14.3399 8.63177 16.6543 11.4863 16.6543C14.3408 16.6542 16.6552 14.3398 16.6553 11.4854C16.6553 8.63079 14.3409 6.31651 11.4863 6.31641Z" fill="#777777"/>
</svg>
