<svg width="8" height="10" viewBox="0 0 8 10" fill="none" xmlns="http://www.w3.org/2000/svg">
<path d="M3.99512 0C6.20011 0 7.99011 1.75287 7.99023 3.91211L8 3.91699C8 4.65882 7.78278 5.34882 7.4209 5.93945C6.52823 7.46562 4.58398 9.16211 4.58398 9.16211C4.41994 9.31328 4.21228 9.38867 4 9.38867C3.78772 9.38395 3.57524 9.31328 3.41602 9.16211C3.41602 9.16211 1.46692 7.4606 0.579102 5.92969C0.212445 5.33909 0 4.64916 0 3.91211C0.000124017 1.75289 1.78533 3.04672e-05 3.99512 0ZM3.99512 2.19727C3.0022 2.19727 2.19727 3.0022 2.19727 3.99512C2.19728 4.98802 3.00221 5.79297 3.99512 5.79297C4.98801 5.79296 5.79296 4.98801 5.79297 3.99512C5.79297 3.00221 4.98802 2.19728 3.99512 2.19727Z" fill="#949494"/>
</svg>
