<svg width="8" height="10" viewBox="0 0 8 10" fill="none" xmlns="http://www.w3.org/2000/svg">
<path d="M7.99035 4.21898C7.99035 2.05963 6.20024 0.306641 3.99517 0.306641C1.78528 0.306641 0 2.05963 0 4.21898C0 4.95608 0.212304 5.64594 0.579011 6.23657C1.46683 7.76748 3.41616 9.4685 3.41616 9.4685C3.57539 9.6197 3.7877 9.69057 4 9.6953C4.2123 9.6953 4.41978 9.6197 4.58384 9.4685C4.58384 9.4685 6.52835 7.77221 7.42099 6.24602C7.78287 5.65539 8 4.96553 8 4.2237L7.99035 4.21898Z" fill="#949494"/>
<path d="M3.99522 6.09956C4.98813 6.09956 5.79304 5.29465 5.79304 4.30173C5.79304 3.30882 4.98813 2.50391 3.99522 2.50391C3.0023 2.50391 2.19739 3.30882 2.19739 4.30173C2.19739 5.29465 3.0023 6.09956 3.99522 6.09956Z" fill="white"/>
</svg>
