<svg width="17" height="17" viewBox="0 0 17 17" fill="none" xmlns="http://www.w3.org/2000/svg">
<mask id="mask0_5363_4206" style="mask-type:alpha" maskUnits="userSpaceOnUse" x="0" y="0" width="17" height="17">
<rect width="17" height="17" fill="#D9D9D9"/>
</mask>
<g mask="url(#mask0_5363_4206)">
<path d="M2.83171 14.1673C2.44212 14.1673 2.10862 14.0286 1.83119 13.7512C1.55375 13.4737 1.41504 13.1402 1.41504 12.7507V4.25065C1.41504 3.86107 1.55375 3.52756 1.83119 3.25013C2.10862 2.9727 2.44212 2.83398 2.83171 2.83398H6.49733C6.68622 2.83398 6.86626 2.8694 7.03744 2.94023C7.20862 3.01107 7.35914 3.11141 7.489 3.24128L8.49837 4.25065H14.165C14.5546 4.25065 14.8881 4.38937 15.1656 4.6668C15.443 4.94423 15.5817 5.27773 15.5817 5.66732V12.7507C15.5817 13.1402 15.443 13.4737 15.1656 13.7512C14.8881 14.0286 14.5546 14.1673 14.165 14.1673H2.83171Z" fill="#777777"/>
</g>
</svg>
